<mxfile host="Electron" modified="2023-07-14T06:29:24.325Z" agent="Mozilla/5.0 (Windows NT 10.0; Win64; x64) AppleWebKit/537.36 (KHTML, like Gecko) draw.io/21.6.1 Chrome/112.0.5615.204 Electron/24.6.1 Safari/537.36" etag="IC_T8HVhIEXRP80Hy4zA" version="21.6.1" type="device" pages="2">
  <diagram name="Страница 1" id="wK4Jv0Jz_CjAPIevrNA-">
    <mxGraphModel dx="864" dy="556" grid="1" gridSize="10" guides="1" tooltips="1" connect="1" arrows="1" fold="1" page="1" pageScale="1" pageWidth="827" pageHeight="1169" math="0" shadow="0">
      <root>
        <mxCell id="0" />
        <mxCell id="1" parent="0" />
        <mxCell id="5XD-ZC_eyeLreyqfrZBo-3" value="" style="edgeStyle=orthogonalEdgeStyle;rounded=0;orthogonalLoop=1;jettySize=auto;html=1;" parent="1" source="5XD-ZC_eyeLreyqfrZBo-1" target="5XD-ZC_eyeLreyqfrZBo-2" edge="1">
          <mxGeometry relative="1" as="geometry" />
        </mxCell>
        <mxCell id="5XD-ZC_eyeLreyqfrZBo-1" value="&lt;font style=&quot;font-size: 18px;&quot;&gt;Start&lt;/font&gt;" style="rounded=1;whiteSpace=wrap;html=1;" parent="1" vertex="1">
          <mxGeometry x="340" y="10" width="120" height="60" as="geometry" />
        </mxCell>
        <mxCell id="5XD-ZC_eyeLreyqfrZBo-9" value="" style="edgeStyle=orthogonalEdgeStyle;rounded=0;orthogonalLoop=1;jettySize=auto;html=1;" parent="1" source="5XD-ZC_eyeLreyqfrZBo-2" target="5XD-ZC_eyeLreyqfrZBo-8" edge="1">
          <mxGeometry relative="1" as="geometry" />
        </mxCell>
        <mxCell id="5XD-ZC_eyeLreyqfrZBo-2" value="num1&lt;br&gt;num2&lt;br&gt;num3&lt;br&gt;num4" style="shape=parallelogram;perimeter=parallelogramPerimeter;whiteSpace=wrap;html=1;fixedSize=1;rounded=1;arcSize=0;" parent="1" vertex="1">
          <mxGeometry x="340" y="100" width="120" height="60" as="geometry" />
        </mxCell>
        <mxCell id="5XD-ZC_eyeLreyqfrZBo-11" value="" style="edgeStyle=orthogonalEdgeStyle;rounded=0;orthogonalLoop=1;jettySize=auto;html=1;" parent="1" source="5XD-ZC_eyeLreyqfrZBo-8" target="5XD-ZC_eyeLreyqfrZBo-10" edge="1">
          <mxGeometry relative="1" as="geometry" />
        </mxCell>
        <mxCell id="5XD-ZC_eyeLreyqfrZBo-8" value="mean = (num1 + num2 + num3 + num4) / 4" style="rounded=0;whiteSpace=wrap;html=1;" parent="1" vertex="1">
          <mxGeometry x="280" y="190" width="240" height="90" as="geometry" />
        </mxCell>
        <mxCell id="5XD-ZC_eyeLreyqfrZBo-14" value="" style="edgeStyle=orthogonalEdgeStyle;rounded=0;orthogonalLoop=1;jettySize=auto;html=1;" parent="1" source="5XD-ZC_eyeLreyqfrZBo-10" target="5XD-ZC_eyeLreyqfrZBo-13" edge="1">
          <mxGeometry relative="1" as="geometry" />
        </mxCell>
        <mxCell id="5XD-ZC_eyeLreyqfrZBo-10" value="mean" style="shape=document;whiteSpace=wrap;html=1;boundedLbl=1;" parent="1" vertex="1">
          <mxGeometry x="340" y="320" width="120" height="80" as="geometry" />
        </mxCell>
        <mxCell id="5XD-ZC_eyeLreyqfrZBo-13" value="&lt;font style=&quot;font-size: 18px;&quot;&gt;Finish&lt;/font&gt;" style="rounded=1;whiteSpace=wrap;html=1;" parent="1" vertex="1">
          <mxGeometry x="340" y="440" width="120" height="60" as="geometry" />
        </mxCell>
      </root>
    </mxGraphModel>
  </diagram>
  <diagram id="XM8tz8qyPRKMyfWQpLPs" name="Страница 2">
    <mxGraphModel dx="864" dy="556" grid="1" gridSize="10" guides="1" tooltips="1" connect="1" arrows="1" fold="1" page="1" pageScale="1" pageWidth="827" pageHeight="1169" math="0" shadow="0">
      <root>
        <mxCell id="0" />
        <mxCell id="1" parent="0" />
        <mxCell id="ih-hVi98Wkx4kDaBPpnG-3" value="" style="edgeStyle=orthogonalEdgeStyle;rounded=0;orthogonalLoop=1;jettySize=auto;html=1;" parent="1" source="ih-hVi98Wkx4kDaBPpnG-1" target="ih-hVi98Wkx4kDaBPpnG-2" edge="1">
          <mxGeometry relative="1" as="geometry" />
        </mxCell>
        <mxCell id="ih-hVi98Wkx4kDaBPpnG-1" value="&lt;font size=&quot;3&quot;&gt;Start&lt;/font&gt;" style="rounded=1;whiteSpace=wrap;html=1;" parent="1" vertex="1">
          <mxGeometry x="330" width="120" height="60" as="geometry" />
        </mxCell>
        <mxCell id="ih-hVi98Wkx4kDaBPpnG-5" value="" style="edgeStyle=orthogonalEdgeStyle;rounded=0;orthogonalLoop=1;jettySize=auto;html=1;" parent="1" source="ih-hVi98Wkx4kDaBPpnG-2" target="ih-hVi98Wkx4kDaBPpnG-4" edge="1">
          <mxGeometry relative="1" as="geometry" />
        </mxCell>
        <mxCell id="ih-hVi98Wkx4kDaBPpnG-2" value="&lt;font style=&quot;font-size: 18px;&quot;&gt;N&lt;/font&gt;" style="shape=parallelogram;perimeter=parallelogramPerimeter;whiteSpace=wrap;html=1;fixedSize=1;" parent="1" vertex="1">
          <mxGeometry x="330" y="100" width="120" height="60" as="geometry" />
        </mxCell>
        <mxCell id="ih-hVi98Wkx4kDaBPpnG-7" value="" style="edgeStyle=orthogonalEdgeStyle;rounded=0;orthogonalLoop=1;jettySize=auto;html=1;" parent="1" source="ih-hVi98Wkx4kDaBPpnG-4" target="ih-hVi98Wkx4kDaBPpnG-6" edge="1">
          <mxGeometry relative="1" as="geometry" />
        </mxCell>
        <mxCell id="ih-hVi98Wkx4kDaBPpnG-4" value="&lt;font style=&quot;font-size: 18px;&quot;&gt;Fact = 1&lt;/font&gt;" style="rounded=0;whiteSpace=wrap;html=1;" parent="1" vertex="1">
          <mxGeometry x="330" y="200" width="120" height="60" as="geometry" />
        </mxCell>
        <mxCell id="ih-hVi98Wkx4kDaBPpnG-13" value="" style="edgeStyle=orthogonalEdgeStyle;rounded=0;orthogonalLoop=1;jettySize=auto;html=1;" parent="1" source="ih-hVi98Wkx4kDaBPpnG-6" target="ih-hVi98Wkx4kDaBPpnG-12" edge="1">
          <mxGeometry relative="1" as="geometry" />
        </mxCell>
        <mxCell id="ih-hVi98Wkx4kDaBPpnG-15" value="&lt;font style=&quot;font-size: 18px;&quot;&gt;False&lt;/font&gt;" style="edgeLabel;html=1;align=center;verticalAlign=middle;resizable=0;points=[];" parent="ih-hVi98Wkx4kDaBPpnG-13" vertex="1" connectable="0">
          <mxGeometry x="-0.35" y="1" relative="1" as="geometry">
            <mxPoint x="-1" y="17" as="offset" />
          </mxGeometry>
        </mxCell>
        <mxCell id="hQHAY8ZRzKJ9qXrv0I0o-1" style="edgeStyle=orthogonalEdgeStyle;rounded=0;orthogonalLoop=1;jettySize=auto;html=1;entryX=1;entryY=0.5;entryDx=0;entryDy=0;" edge="1" parent="1" source="ih-hVi98Wkx4kDaBPpnG-6" target="ih-hVi98Wkx4kDaBPpnG-21">
          <mxGeometry relative="1" as="geometry">
            <Array as="points">
              <mxPoint x="540" y="340" />
              <mxPoint x="540" y="750" />
            </Array>
          </mxGeometry>
        </mxCell>
        <mxCell id="hQHAY8ZRzKJ9qXrv0I0o-5" value="&lt;font style=&quot;font-size: 18px;&quot;&gt;True&lt;/font&gt;" style="edgeLabel;html=1;align=center;verticalAlign=middle;resizable=0;points=[];" vertex="1" connectable="0" parent="hQHAY8ZRzKJ9qXrv0I0o-1">
          <mxGeometry x="-0.8426" y="2" relative="1" as="geometry">
            <mxPoint as="offset" />
          </mxGeometry>
        </mxCell>
        <mxCell id="ih-hVi98Wkx4kDaBPpnG-6" value="N == 0&lt;br&gt;or&lt;br&gt;N == 1" style="rhombus;whiteSpace=wrap;html=1;" parent="1" vertex="1">
          <mxGeometry x="350" y="300" width="80" height="80" as="geometry" />
        </mxCell>
        <mxCell id="ih-hVi98Wkx4kDaBPpnG-17" value="" style="edgeStyle=orthogonalEdgeStyle;rounded=0;orthogonalLoop=1;jettySize=auto;html=1;" parent="1" source="ih-hVi98Wkx4kDaBPpnG-12" target="ih-hVi98Wkx4kDaBPpnG-16" edge="1">
          <mxGeometry relative="1" as="geometry" />
        </mxCell>
        <mxCell id="ih-hVi98Wkx4kDaBPpnG-18" value="&lt;font style=&quot;font-size: 18px;&quot;&gt;True&lt;/font&gt;" style="edgeLabel;html=1;align=center;verticalAlign=middle;resizable=0;points=[];" parent="ih-hVi98Wkx4kDaBPpnG-17" vertex="1" connectable="0">
          <mxGeometry x="-0.2364" relative="1" as="geometry">
            <mxPoint as="offset" />
          </mxGeometry>
        </mxCell>
        <mxCell id="hQHAY8ZRzKJ9qXrv0I0o-3" style="edgeStyle=orthogonalEdgeStyle;rounded=0;orthogonalLoop=1;jettySize=auto;html=1;" edge="1" parent="1" source="ih-hVi98Wkx4kDaBPpnG-12">
          <mxGeometry relative="1" as="geometry">
            <mxPoint x="540" y="490" as="targetPoint" />
          </mxGeometry>
        </mxCell>
        <mxCell id="hQHAY8ZRzKJ9qXrv0I0o-4" value="&lt;font style=&quot;font-size: 18px;&quot;&gt;False&lt;/font&gt;" style="edgeLabel;html=1;align=center;verticalAlign=middle;resizable=0;points=[];" vertex="1" connectable="0" parent="hQHAY8ZRzKJ9qXrv0I0o-3">
          <mxGeometry x="-0.2036" y="-4" relative="1" as="geometry">
            <mxPoint y="-4" as="offset" />
          </mxGeometry>
        </mxCell>
        <mxCell id="ih-hVi98Wkx4kDaBPpnG-12" value="N &amp;gt; 1" style="rhombus;whiteSpace=wrap;html=1;" parent="1" vertex="1">
          <mxGeometry x="350" y="450" width="80" height="80" as="geometry" />
        </mxCell>
        <mxCell id="ih-hVi98Wkx4kDaBPpnG-20" style="edgeStyle=orthogonalEdgeStyle;rounded=0;orthogonalLoop=1;jettySize=auto;html=1;entryX=0;entryY=0.5;entryDx=0;entryDy=0;" parent="1" source="ih-hVi98Wkx4kDaBPpnG-16" target="ih-hVi98Wkx4kDaBPpnG-12" edge="1">
          <mxGeometry relative="1" as="geometry">
            <mxPoint x="180" y="480" as="targetPoint" />
            <Array as="points">
              <mxPoint x="240" y="630" />
              <mxPoint x="240" y="490" />
            </Array>
          </mxGeometry>
        </mxCell>
        <mxCell id="ih-hVi98Wkx4kDaBPpnG-16" value="Fact *= N&lt;br&gt;N -= 1" style="whiteSpace=wrap;html=1;" parent="1" vertex="1">
          <mxGeometry x="330" y="600" width="120" height="60" as="geometry" />
        </mxCell>
        <mxCell id="hQHAY8ZRzKJ9qXrv0I0o-6" value="" style="edgeStyle=orthogonalEdgeStyle;rounded=0;orthogonalLoop=1;jettySize=auto;html=1;" edge="1" parent="1" source="ih-hVi98Wkx4kDaBPpnG-21" target="9Hk_jCx7PhLQqJxCJSWc-1">
          <mxGeometry relative="1" as="geometry" />
        </mxCell>
        <mxCell id="ih-hVi98Wkx4kDaBPpnG-21" value="&lt;font style=&quot;font-size: 18px;&quot;&gt;Fact&lt;/font&gt;" style="shape=document;whiteSpace=wrap;html=1;boundedLbl=1;" parent="1" vertex="1">
          <mxGeometry x="330" y="710" width="120" height="80" as="geometry" />
        </mxCell>
        <mxCell id="9Hk_jCx7PhLQqJxCJSWc-1" value="&lt;font style=&quot;font-size: 18px;&quot;&gt;Finish&lt;/font&gt;" style="rounded=1;whiteSpace=wrap;html=1;" parent="1" vertex="1">
          <mxGeometry x="330" y="840" width="120" height="60" as="geometry" />
        </mxCell>
      </root>
    </mxGraphModel>
  </diagram>
</mxfile>
